<svg width="51" height="52" viewBox="0 0 51 52" fill="none" xmlns="http://www.w3.org/2000/svg">
<path d="M27.3075 0.839373L0.101674 7.78881L23.7145 16.2648L50.9491 10.0442L27.3075 0.839373Z" fill="#8DA2ED"/>
<path d="M15.3673 35.916L0.101674 7.78881L23.7145 16.2648L15.3673 35.916Z" fill="#546AB5"/>
<path d="M9.4606 49.7373L26.1236 51.533L16.5077 43.8949L9.4606 49.7373Z" fill="#43579C"/>
<path d="M46.6524 29.8472L20.3267 46.9284L16.5077 43.8949L37.8555 29.4867L46.6524 29.8472Z" fill="#546AB5"/>
<path d="M46.6524 29.8472L37.8555 29.4867L50.9491 10.0442L46.6524 29.8472Z" fill="#6179CD"/>
<path d="M50.9491 10.0442L23.7145 16.2648L15.3673 35.916L9.4606 49.7373L16.5077 43.8949L37.8555 29.4867L50.9491 10.0442Z" fill="#7B91E0"/>
<path d="M23.7145 16.2648L15.3673 35.916L9.09987 11.0072L23.7145 16.2648Z" fill="#6179CD"/>
</svg>
